<svg xmlns="http://www.w3.org/2000/svg" xmlns:xlink="http://www.w3.org/1999/xlink" width="500" zoomAndPan="magnify" viewBox="0 0 375 374.999991" height="500" preserveAspectRatio="xMidYMid meet" version="1.0"><defs><g/><clipPath id="e958ff6937"><path d="M 144 56 L 150 56 L 150 59 L 144 59 Z M 144 56 " clip-rule="nonzero"/></clipPath><clipPath id="b867622fe5"><path d="M 144.910156 58.621094 C 144.707031 58.738281 144.539062 58.84375 144.34375 58.960938 C 146.050781 58.023438 147.785156 57.160156 149.5625 56.351562 C 148.46875 56.832031 147.082031 57.492188 144.910156 58.621094 Z M 144.910156 58.621094 " clip-rule="nonzero"/></clipPath><linearGradient x1="43.500754" gradientTransform="matrix(1.064954, 0, 0, 1.064937, 99.521586, 48.960699)" y1="6.193928" x2="45.584191" gradientUnits="userSpaceOnUse" y2="10.133474" id="4b81c6c89b"><stop stop-opacity="1" stop-color="rgb(37.158203%, 86.170959%, 78.172302%)" offset="0"/><stop stop-opacity="1" stop-color="rgb(35.884094%, 84.797668%, 80.036926%)" offset="1"/></linearGradient><clipPath id="ed46d3d1b0"><path d="M 171 50 L 172 50 L 172 51 L 171 51 Z M 171 50 " clip-rule="nonzero"/></clipPath><clipPath id="38e9874b3a"><path d="M 171.214844 50.027344 C 171.183594 50.027344 171.160156 50.035156 171.140625 50.035156 C 171.160156 50.035156 171.191406 50.035156 171.214844 50.027344 C 171.214844 50.027344 171.226562 50.027344 171.214844 50.027344 Z M 171.214844 50.027344 " clip-rule="nonzero"/></clipPath><linearGradient x1="67.275587" gradientTransform="matrix(1.064954, 0, 0, 1.064937, 99.521586, 48.960699)" y1="0.986477" x2="67.297205" gradientUnits="userSpaceOnUse" y2="1.027353" id="d36274b4c1"><stop stop-opacity="1" stop-color="rgb(35.173035%, 84.030151%, 81.077576%)" offset="0"/><stop stop-opacity="1" stop-color="rgb(35.159302%, 84.014893%, 81.098938%)" offset="1"/></linearGradient><clipPath id="dc081fe474"><path d="M 126 52 L 214 52 L 214 96 L 126 96 Z M 126 52 " clip-rule="nonzero"/></clipPath><clipPath id="cece4a24e9"><path d="M 213.449219 92.027344 C 203.566406 88.46875 194.003906 83.453125 187.390625 76.945312 C 179.074219 68.769531 168.019531 56.914062 168.96875 52.230469 C 160.488281 52.828125 151.820312 55.050781 143.472656 59.480469 C 137.730469 62.941406 136.15625 64.1875 130.800781 68.417969 L 127.359375 71.496094 C 127.242188 71.707031 127.03125 71.972656 126.976562 72.207031 C 126.1875 75.9375 134.34375 86.011719 148.339844 95.019531 C 149.011719 94.957031 149.394531 94.921875 149.425781 94.921875 C 182.714844 93.859375 202.042969 93.242188 213.449219 92.027344 Z M 213.449219 92.027344 " clip-rule="nonzero"/></clipPath><linearGradient x1="45.373563" gradientTransform="matrix(1.064954, 0, 0, 1.064937, 99.521586, 48.960699)" y1="-7.683295" x2="79.886742" gradientUnits="userSpaceOnUse" y2="57.578143" id="fc81a43a66"><stop stop-opacity="1" stop-color="rgb(38.75885%, 88.163757%, 75.393677%)" offset="0"/><stop stop-opacity="1" stop-color="rgb(24.708557%, 61.178589%, 88.62915%)" offset="1"/></linearGradient><clipPath id="bfa98dd91c"><path d="M 99.261719 48.960938 L 275.511719 48.960938 L 275.511719 141 L 99.261719 141 Z M 99.261719 48.960938 " clip-rule="nonzero"/></clipPath><clipPath id="0372972217"><path d="M 105.792969 127.9375 C 108.148438 126.753906 108.445312 126.605469 140.425781 132.738281 C 162.183594 130.449219 190.277344 130.707031 218.914062 136.222656 C 224.738281 137.339844 229.851562 138.332031 234.34375 139.191406 C 256.015625 136.914062 271.414062 132.101562 274.835938 127.4375 L 275.089844 131.214844 C 275.632812 125.070312 274.75 117.382812 272.308594 109.351562 C 258.710938 64.605469 211.492188 43.871094 171.214844 50.027344 C 171.226562 50.058594 170.074219 50.546875 169.5 51.144531 C 169.210938 51.441406 169.042969 51.804688 168.957031 52.230469 C 202.820312 49.84375 233.769531 73.25 230.445312 84.125 C 229.09375 88.523438 226.367188 90.652344 213.441406 92.027344 C 227.6875 97.160156 242.597656 99.257812 250.289062 98.382812 C 209.703125 121.675781 171.203125 109.769531 148.328125 95.03125 C 145.355469 95.316406 136.730469 96.160156 128.117188 97.097656 C 114.207031 98.617188 102.824219 109.097656 100.480469 122.898438 C 100.46875 122.964844 100.457031 123.039062 100.449219 123.101562 C 99.53125 131.707031 99.414062 132.8125 99.585938 139.449219 L 99.671875 140.714844 C 100.234375 134.378906 102.3125 129.683594 105.792969 127.9375 Z M 105.792969 127.9375 " clip-rule="nonzero"/></clipPath><linearGradient x1="15.019586" gradientTransform="matrix(1.064954, 0, 0, 1.064937, 99.521586, 48.960699)" y1="108.246391" x2="167.772257" gradientUnits="userSpaceOnUse" y2="3.677078" id="32b46ca816"><stop stop-opacity="1" stop-color="rgb(15.689087%, 45.489502%, 80.389404%)" offset="0"/><stop stop-opacity="1" stop-color="rgb(24.708557%, 61.178589%, 88.62915%)" offset="1"/></linearGradient><clipPath id="d40bbadcac"><path d="M 142 58 L 145 58 L 145 60 L 142 60 Z M 142 58 " clip-rule="nonzero"/></clipPath><clipPath id="06e2cd4814"><path d="M 143.046875 59.675781 L 142.621094 59.929688 C 142.898438 59.769531 143.183594 59.632812 143.472656 59.480469 C 143.75 59.3125 144.046875 59.128906 144.355469 58.949219 C 143.910156 59.195312 143.472656 59.429688 143.046875 59.675781 Z M 143.046875 59.675781 " clip-rule="nonzero"/></clipPath><linearGradient x1="40.515068" gradientTransform="matrix(1.064954, 0, 0, 1.064937, 99.521586, 48.960699)" y1="10.365848" x2="42.05379" gradientUnits="userSpaceOnUse" y2="9.312507" id="9c40ab2aed"><stop stop-opacity="1" stop-color="rgb(19.386292%, 51.835632%, 83.607483%)" offset="0"/><stop stop-opacity="1" stop-color="rgb(19.554138%, 52.137756%, 83.763123%)" offset="1"/></linearGradient><clipPath id="b3bc5023c7"><path d="M 149 50 L 172 50 L 172 57 L 149 57 Z M 149 50 " clip-rule="nonzero"/></clipPath><clipPath id="e2200010d6"><path d="M 171.140625 50.035156 C 163.621094 51.195312 156.335938 53.285156 149.5625 56.339844 C 151.660156 55.433594 152.738281 55.210938 156.304688 53.839844 C 162.546875 51.738281 166.921875 51.039062 171.140625 50.035156 Z M 171.140625 50.035156 " clip-rule="nonzero"/></clipPath><linearGradient x1="48.844794" gradientTransform="matrix(1.064954, 0, 0, 1.064937, 99.521586, 48.960699)" y1="9.639468" x2="65.399457" gradientUnits="userSpaceOnUse" y2="-1.693241" id="4b92206bc6"><stop stop-opacity="1" stop-color="rgb(20.040894%, 53.013611%, 84.217834%)" offset="0"/><stop stop-opacity="1" stop-color="rgb(21.784973%, 56.15387%, 85.845947%)" offset="1"/></linearGradient><clipPath id="197e3acc36"><path d="M 148 92 L 251 92 L 251 112 L 148 112 Z M 148 92 " clip-rule="nonzero"/></clipPath><clipPath id="b49245e8c8"><path d="M 250.296875 98.382812 C 242.609375 99.257812 227.699219 97.160156 213.449219 92.027344 C 202.054688 93.242188 182.726562 93.859375 149.425781 94.933594 C 149.394531 94.933594 149.011719 94.964844 148.339844 95.03125 C 171.214844 109.769531 209.710938 121.675781 250.296875 98.382812 Z M 250.296875 98.382812 " clip-rule="nonzero"/></clipPath><linearGradient x1="81.430174" gradientTransform="matrix(1.064954, 0, 0, 1.064937, 99.521586, 48.960699)" y1="21.618329" x2="113.859694" gradientUnits="userSpaceOnUse" y2="82.939753" id="864dca0f06"><stop stop-opacity="1" stop-color="rgb(26.040649%, 78.936768%, 83.856201%)" offset="0"/><stop stop-opacity="1" stop-color="rgb(0%, 70.588684%, 74.899292%)" offset="1"/></linearGradient><clipPath id="c697f71f9e"><path d="M 143 50 L 172 50 L 172 60 L 143 60 Z M 143 50 " clip-rule="nonzero"/></clipPath><clipPath id="93ae399787"><path d="M 169.5 51.144531 C 170.074219 50.546875 171.226562 50.058594 171.214844 50.027344 C 171.183594 50.027344 171.160156 50.035156 171.128906 50.035156 C 166.910156 51.027344 162.546875 51.730469 156.292969 53.839844 C 152.738281 55.210938 151.660156 55.433594 149.554688 56.339844 C 147.773438 57.140625 146.039062 58.011719 144.335938 58.949219 C 144.035156 59.128906 143.738281 59.3125 143.449219 59.480469 C 151.8125 55.050781 160.46875 52.828125 168.945312 52.230469 C 169.050781 51.804688 169.222656 51.441406 169.5 51.144531 Z M 169.5 51.144531 " clip-rule="nonzero"/></clipPath><linearGradient x1="49.609002" gradientTransform="matrix(1.064954, 0, 0, 1.064937, 99.521586, 48.960699)" y1="-3.420738" x2="58.978961" gradientUnits="userSpaceOnUse" y2="14.29654" id="8c9d9be6d6"><stop stop-opacity="1" stop-color="rgb(37.976074%, 87.182617%, 76.765442%)" offset="0"/><stop stop-opacity="1" stop-color="rgb(32.86438%, 81.539917%, 84.455872%)" offset="1"/></linearGradient><linearGradient x1="43.487501" gradientTransform="matrix(1.064954, 0, 0, 1.064937, 99.521586, 48.960699)" y1="13.148564" x2="65.384889" gradientUnits="userSpaceOnUse" y2="-1.841418" id="282decbf9e"><stop stop-opacity="1" stop-color="rgb(19.465637%, 51.979065%, 83.680725%)" offset="0"/><stop stop-opacity="1" stop-color="rgb(21.772766%, 56.134033%, 85.835266%)" offset="1"/></linearGradient><clipPath id="fae6c87bf4"><path d="M 225 212 L 231 212 L 231 216 L 225 216 Z M 225 212 " clip-rule="nonzero"/></clipPath><clipPath id="0cc9f69a80"><path d="M 229.851562 213.3125 C 230.054688 213.195312 230.222656 213.089844 230.414062 212.972656 C 228.710938 213.910156 226.976562 214.769531 225.195312 215.582031 C 226.304688 215.101562 227.679688 214.429688 229.851562 213.3125 Z M 229.851562 213.3125 " clip-rule="nonzero"/></clipPath><linearGradient x1="122.323965" gradientTransform="matrix(1.064954, 0, 0, 1.064937, 99.521586, 48.960699)" y1="157.05669" x2="118.605028" gradientUnits="userSpaceOnUse" y2="153.404158" id="78963a1fc5"><stop stop-opacity="1" stop-color="rgb(80.778503%, 25.099182%, 54.119873%)" offset="0"/><stop stop-opacity="1" stop-color="rgb(81.108093%, 24.879456%, 53.681946%)" offset="1"/></linearGradient><clipPath id="009cf64760"><path d="M 203 221 L 204 221 L 204 222 L 203 222 Z M 203 221 " clip-rule="nonzero"/></clipPath><clipPath id="a2a00f4090"><path d="M 203.558594 221.894531 C 203.578125 221.886719 203.609375 221.886719 203.632812 221.875 C 203.597656 221.886719 203.578125 221.886719 203.558594 221.894531 C 203.546875 221.894531 203.535156 221.90625 203.558594 221.894531 Z M 203.558594 221.894531 " clip-rule="nonzero"/></clipPath><linearGradient x1="97.747971" gradientTransform="matrix(1.064954, 0, 0, 1.064937, 99.521586, 48.960699)" y1="162.412257" x2="97.687161" gradientUnits="userSpaceOnUse" y2="162.352533" id="3f0b5eae7e"><stop stop-opacity="1" stop-color="rgb(83.374023%, 23.397827%, 50.671387%)" offset="0"/><stop stop-opacity="1" stop-color="rgb(83.409119%, 23.376465%, 50.624084%)" offset="1"/></linearGradient><clipPath id="655feecefe"><path d="M 161 176 L 248 176 L 248 220 L 161 220 Z M 161 176 " clip-rule="nonzero"/></clipPath><clipPath id="a835cba009"><path d="M 161.320312 179.894531 C 171.203125 183.453125 180.765625 188.46875 187.378906 194.972656 C 195.6875 203.140625 206.742188 214.996094 205.792969 219.691406 C 214.269531 219.09375 222.9375 216.871094 231.289062 212.4375 C 237.027344 208.976562 238.605469 207.730469 243.960938 203.503906 L 247.402344 200.425781 C 247.519531 200.214844 247.730469 199.949219 247.785156 199.714844 C 248.574219 195.984375 240.414062 185.910156 226.421875 176.902344 C 225.75 176.964844 225.367188 177 225.335938 177 C 192.042969 178.0625 172.714844 178.691406 161.320312 179.894531 Z M 161.320312 179.894531 " clip-rule="nonzero"/></clipPath><linearGradient x1="134.760137" gradientTransform="matrix(1.064954, 0, 0, 1.064937, 99.521586, 48.960699)" y1="165.61443" x2="72.970384" gradientUnits="userSpaceOnUse" y2="104.928012" id="65f4daf47b"><stop stop-opacity="1" stop-color="rgb(80.778503%, 25.099182%, 54.119873%)" offset="0"/><stop stop-opacity="1" stop-color="rgb(99.533081%, 36.830139%, 12.982178%)" offset="1"/></linearGradient><clipPath id="39ce38c67d"><path d="M 230 211 L 233 211 L 233 213 L 230 213 Z M 230 211 " clip-rule="nonzero"/></clipPath><clipPath id="c5a1a105da"><path d="M 231.714844 212.246094 L 232.140625 211.992188 C 231.863281 212.152344 231.574219 212.289062 231.289062 212.4375 C 231.011719 212.609375 230.714844 212.789062 230.40625 212.972656 C 230.851562 212.726562 231.289062 212.492188 231.714844 212.246094 Z M 231.714844 212.246094 " clip-rule="nonzero"/></clipPath><linearGradient x1="122.899996" gradientTransform="matrix(1.064954, 0, 0, 1.064937, 99.521586, 48.960699)" y1="153.550003" x2="124.530001" gradientUnits="userSpaceOnUse" y2="153.550003" id="5f18f7409a"><stop stop-opacity="1" stop-color="rgb(95.906067%, 47.018433%, 11.13739%)" offset="0"/><stop stop-opacity="1" stop-color="rgb(95.84198%, 46.678162%, 11.302185%)" offset="1"/></linearGradient><clipPath id="456117b417"><path d="M 99.261719 131 L 275.511719 131 L 275.511719 222.960938 L 99.261719 222.960938 Z M 99.261719 131 " clip-rule="nonzero"/></clipPath><clipPath id="294ffbaf1e"><path d="M 275.175781 132.472656 L 275.089844 131.207031 C 274.535156 137.542969 272.449219 142.238281 268.976562 143.984375 C 266.625 145.167969 266.324219 145.316406 234.34375 139.183594 C 212.585938 141.472656 184.496094 141.214844 155.859375 135.699219 C 150.03125 134.582031 144.921875 133.589844 140.425781 132.730469 C 118.753906 135.019531 103.355469 139.820312 99.9375 144.496094 L 99.679688 140.714844 C 99.136719 146.859375 100.023438 154.550781 102.460938 162.578125 C 116.050781 207.316406 163.269531 228.0625 203.546875 221.894531 C 203.535156 221.875 204.6875 221.375 205.261719 220.777344 C 205.546875 220.480469 205.71875 220.117188 205.804688 219.691406 C 171.9375 222.078125 140.980469 198.667969 144.3125 187.796875 C 145.667969 183.398438 148.390625 181.269531 161.320312 179.894531 C 147.070312 174.761719 132.164062 172.664062 124.472656 173.535156 C 165.058594 150.246094 203.558594 162.152344 226.433594 176.890625 C 229.402344 176.605469 238.03125 175.761719 246.644531 174.824219 C 260.554688 173.3125 271.949219 162.824219 274.28125 149.023438 C 274.292969 148.957031 274.300781 148.882812 274.3125 148.820312 C 275.238281 140.214844 275.355469 139.109375 275.175781 132.472656 Z M 275.175781 132.472656 " clip-rule="nonzero"/></clipPath><linearGradient x1="-0.245053" gradientTransform="matrix(1.064954, 0, 0, 1.064937, 99.521586, 48.960699)" y1="120.308998" x2="165.110004" gradientUnits="userSpaceOnUse" y2="120.308998" id="e2fd20f80b"><stop stop-opacity="1" stop-color="rgb(100%, 69.018555%, 5.879211%)" offset="0"/><stop stop-opacity="1" stop-color="rgb(93.759155%, 35.453796%, 16.778564%)" offset="1"/></linearGradient><clipPath id="5a28f28262"><path d="M 203 215 L 226 215 L 226 222 L 203 222 Z M 203 215 " clip-rule="nonzero"/></clipPath><clipPath id="58a5ec0267"><path d="M 203.632812 221.886719 C 211.148438 220.722656 218.433594 218.636719 225.207031 215.582031 C 223.109375 216.484375 222.035156 216.710938 218.464844 218.082031 C 212.214844 220.179688 207.847656 220.882812 203.632812 221.886719 Z M 203.632812 221.886719 " clip-rule="nonzero"/></clipPath><linearGradient x1="97.760004" gradientTransform="matrix(1.064954, 0, 0, 1.064937, 99.521586, 48.960699)" y1="159.414001" x2="118.020006" gradientUnits="userSpaceOnUse" y2="159.414001" id="ef52b86746"><stop stop-opacity="1" stop-color="rgb(97.183228%, 53.721619%, 7.875061%)" offset="0"/><stop stop-opacity="1" stop-color="rgb(96.18988%, 48.554993%, 10.386658%)" offset="1"/></linearGradient><clipPath id="958bda567b"><path d="M 234 127 L 275.511719 127 L 275.511719 145 L 234 145 Z M 234 127 " clip-rule="nonzero"/></clipPath><clipPath id="d4a7f959a6"><path d="M 234.34375 139.183594 C 266.335938 145.316406 266.625 145.167969 268.976562 143.984375 C 272.449219 142.238281 274.527344 137.53125 275.089844 131.207031 L 274.835938 127.425781 C 271.414062 132.101562 256.015625 136.902344 234.34375 139.183594 Z M 234.34375 139.183594 " clip-rule="nonzero"/></clipPath><linearGradient x1="130.172645" gradientTransform="matrix(1.064954, 0, 0, 1.064937, 99.521586, 48.960699)" y1="95.698859" x2="164.055033" gradientUnits="userSpaceOnUse" y2="72.504124" id="19fdc57fd4"><stop stop-opacity="1" stop-color="rgb(21.70105%, 56.002808%, 85.768127%)" offset="0"/><stop stop-opacity="1" stop-color="rgb(24.708557%, 61.178589%, 88.62915%)" offset="1"/></linearGradient><clipPath id="dc3a0fffa0"><path d="M 234 127 L 275.511719 127 L 275.511719 145 L 234 145 Z M 234 127 " clip-rule="nonzero"/></clipPath><clipPath id="d263b7b9ca"><path d="M 99.261719 127 L 141 127 L 141 145 L 99.261719 145 Z M 99.261719 127 " clip-rule="nonzero"/></clipPath><clipPath id="18992258fe"><path d="M 140.425781 132.738281 C 108.433594 126.605469 108.148438 126.742188 105.792969 127.9375 C 102.324219 129.683594 100.246094 134.390625 99.679688 140.714844 L 99.9375 144.496094 C 103.355469 139.820312 118.753906 135.019531 140.425781 132.738281 Z M 140.425781 132.738281 " clip-rule="nonzero"/></clipPath><linearGradient x1="0.953631" gradientTransform="matrix(1.064954, 0, 0, 1.064937, 99.521586, 48.960699)" y1="90.883946" x2="34.836014" gradientUnits="userSpaceOnUse" y2="67.68921" id="7acc1e7322"><stop stop-opacity="1" stop-color="rgb(15.689087%, 45.489502%, 80.389404%)" offset="0"/><stop stop-opacity="1" stop-color="rgb(16.61377%, 47.032166%, 81.161499%)" offset="1"/></linearGradient><clipPath id="340a921ae9"><path d="M 99.261719 127 L 141 127 L 141 145 L 99.261719 145 Z M 99.261719 127 " clip-rule="nonzero"/></clipPath><clipPath id="89c1fe689b"><path d="M 203 212 L 232 212 L 232 222 L 203 222 Z M 203 212 " clip-rule="nonzero"/></clipPath><clipPath id="b8d337331e"><path d="M 205.261719 220.777344 C 204.6875 221.375 203.535156 221.863281 203.546875 221.894531 C 203.578125 221.894531 203.597656 221.886719 203.632812 221.886719 C 207.847656 220.894531 212.214844 220.191406 218.464844 218.082031 C 222.023438 216.710938 223.097656 216.484375 225.207031 215.582031 C 226.984375 214.78125 228.722656 213.910156 230.425781 212.972656 C 230.722656 212.789062 231.023438 212.609375 231.308594 212.4375 C 222.949219 216.871094 214.292969 219.09375 205.816406 219.691406 C 205.71875 220.117188 205.546875 220.480469 205.261719 220.777344 Z M 205.261719 220.777344 " clip-rule="nonzero"/></clipPath><linearGradient x1="119.566958" gradientTransform="matrix(1.064954, 0, 0, 1.064937, 99.521586, 48.960699)" y1="166.649114" x2="101.852749" gradientUnits="userSpaceOnUse" y2="149.251212" id="f951558e65"><stop stop-opacity="1" stop-color="rgb(80.778503%, 25.099182%, 54.119873%)" offset="0"/><stop stop-opacity="1" stop-color="rgb(85.958862%, 21.940613%, 47.276306%)" offset="1"/></linearGradient><linearGradient x1="97.67" gradientTransform="matrix(1.064954, 0, 0, 1.064937, 99.521586, 48.960699)" y1="157.949997" x2="123.75001" gradientUnits="userSpaceOnUse" y2="157.949997" id="7c7628b23f"><stop stop-opacity="1" stop-color="rgb(97.187805%, 53.742981%, 7.86438%)" offset="0"/><stop stop-opacity="1" stop-color="rgb(95.881653%, 46.894836%, 11.196899%)" offset="1"/></linearGradient><clipPath id="8af4980e11"><path d="M 124 160 L 227 160 L 227 180 L 124 180 Z M 124 160 " clip-rule="nonzero"/></clipPath><clipPath id="c101f67360"><path d="M 124.472656 173.535156 C 132.164062 172.664062 147.070312 174.761719 161.320312 179.894531 C 172.714844 178.679688 192.042969 178.0625 225.347656 176.988281 C 225.378906 176.988281 225.761719 176.957031 226.433594 176.890625 C 203.546875 162.152344 165.058594 150.246094 124.472656 173.535156 Z M 124.472656 173.535156 " clip-rule="nonzero"/></clipPath><linearGradient x1="97.861281" gradientTransform="matrix(1.064954, 0, 0, 1.064937, 99.521586, 48.960699)" y1="144.646134" x2="35.211146" gradientUnits="userSpaceOnUse" y2="83.114677" id="ef06aa97f3"><stop stop-opacity="1" stop-color="rgb(88.616943%, 20.445251%, 43.789673%)" offset="0"/><stop stop-opacity="1" stop-color="rgb(100%, 52.549744%, 0.779724%)" offset="1"/></linearGradient></defs><g clip-path="url(#e958ff6937)"><g clip-path="url(#b867622fe5)"><path fill="url(#4b81c6c89b)" d="M 144.34375 56.351562 L 144.34375 58.960938 L 149.5625 58.960938 L 149.5625 56.351562 Z M 144.34375 56.351562 " fill-rule="nonzero"/></g></g><g clip-path="url(#ed46d3d1b0)"><g clip-path="url(#38e9874b3a)"><path fill="url(#d36274b4c1)" d="M 171.140625 50.027344 L 171.140625 50.035156 L 171.226562 50.035156 L 171.226562 50.027344 Z M 171.140625 50.027344 " fill-rule="nonzero"/></g></g><g clip-path="url(#dc081fe474)"><g clip-path="url(#cece4a24e9)"><path fill="url(#fc81a43a66)" d="M 126.1875 52.230469 L 126.1875 95.019531 L 213.449219 95.019531 L 213.449219 52.230469 Z M 126.1875 52.230469 " fill-rule="nonzero"/></g></g><g clip-path="url(#bfa98dd91c)"><g clip-path="url(#0372972217)"><path fill="url(#32b46ca816)" d="M 99.414062 48.960938 L 99.414062 140.714844 L 275.511719 140.714844 L 275.511719 48.960938 Z M 99.414062 48.960938 " fill-rule="nonzero"/></g></g><g clip-path="url(#d40bbadcac)"><g clip-path="url(#06e2cd4814)"><path fill="url(#9c40ab2aed)" d="M 142.621094 58.949219 L 142.621094 59.929688 L 144.355469 59.929688 L 144.355469 58.949219 Z M 142.621094 58.949219 " fill-rule="nonzero"/></g></g><g clip-path="url(#b3bc5023c7)"><g clip-path="url(#e2200010d6)"><path fill="url(#4b92206bc6)" d="M 149.5625 50.035156 L 149.5625 56.339844 L 171.140625 56.339844 L 171.140625 50.035156 Z M 149.5625 50.035156 " fill-rule="nonzero"/></g></g><g clip-path="url(#197e3acc36)"><g clip-path="url(#b49245e8c8)"><path fill="url(#864dca0f06)" d="M 148.339844 92.027344 L 148.339844 121.675781 L 250.296875 121.675781 L 250.296875 92.027344 Z M 148.339844 92.027344 " fill-rule="nonzero"/></g></g><path fill="#0363a6" d="M 250.296875 98.382812 C 242.609375 99.257812 227.699219 97.160156 213.449219 92.027344 C 202.054688 93.242188 182.726562 93.859375 149.425781 94.933594 C 149.394531 94.933594 149.011719 94.964844 148.339844 95.03125 C 171.214844 109.769531 209.710938 121.675781 250.296875 98.382812 Z M 250.296875 98.382812 " fill-opacity="1" fill-rule="nonzero"/><g clip-path="url(#c697f71f9e)"><g clip-path="url(#93ae399787)"><path fill="url(#8c9d9be6d6)" d="M 143.449219 50.027344 L 143.449219 59.480469 L 171.226562 59.480469 L 171.226562 50.027344 Z M 143.449219 50.027344 " fill-rule="nonzero"/><path fill="url(#282decbf9e)" d="M 143.449219 50.027344 L 143.449219 59.480469 L 171.226562 59.480469 L 171.226562 50.027344 Z M 143.449219 50.027344 " fill-rule="nonzero"/></g></g><g clip-path="url(#fae6c87bf4)"><g clip-path="url(#0cc9f69a80)"><path fill="url(#78963a1fc5)" d="M 225.195312 212.972656 L 225.195312 215.582031 L 230.414062 215.582031 L 230.414062 212.972656 Z M 225.195312 212.972656 " fill-rule="nonzero"/></g></g><g clip-path="url(#009cf64760)"><g clip-path="url(#a2a00f4090)"><path fill="url(#3f0b5eae7e)" d="M 203.535156 221.875 L 203.535156 221.90625 L 203.632812 221.90625 L 203.632812 221.875 Z M 203.535156 221.875 " fill-rule="nonzero"/></g></g><g clip-path="url(#655feecefe)"><g clip-path="url(#a835cba009)"><path fill="url(#65f4daf47b)" d="M 161.320312 176.902344 L 161.320312 219.691406 L 248.574219 219.691406 L 248.574219 176.902344 Z M 161.320312 176.902344 " fill-rule="nonzero"/></g></g><g clip-path="url(#39ce38c67d)"><g clip-path="url(#c5a1a105da)"><path fill="url(#5f18f7409a)" d="M 230.40625 211.992188 L 230.40625 212.972656 L 232.140625 212.972656 L 232.140625 211.992188 Z M 230.40625 211.992188 " fill-rule="nonzero"/></g></g><g clip-path="url(#456117b417)"><g clip-path="url(#294ffbaf1e)"><path fill="url(#e2fd20f80b)" d="M 99.261719 131.207031 L 99.261719 222.960938 L 275.355469 222.960938 L 275.355469 131.207031 Z M 99.261719 131.207031 " fill-rule="nonzero"/></g></g><g clip-path="url(#5a28f28262)"><g clip-path="url(#58a5ec0267)"><path fill="url(#ef52b86746)" d="M 203.632812 215.582031 L 203.632812 221.886719 L 225.207031 221.886719 L 225.207031 215.582031 Z M 203.632812 215.582031 " fill-rule="nonzero"/></g></g><g clip-path="url(#958bda567b)"><g clip-path="url(#d4a7f959a6)"><path fill="url(#19fdc57fd4)" d="M 234.34375 127.425781 L 234.34375 145.316406 L 275.089844 145.316406 L 275.089844 127.425781 Z M 234.34375 127.425781 " fill-rule="nonzero"/></g></g><g clip-path="url(#dc3a0fffa0)"><path fill="#3a3b21" d="M 234.34375 139.183594 C 266.335938 145.316406 266.625 145.167969 268.976562 143.984375 C 272.449219 142.238281 274.527344 137.53125 275.089844 131.207031 L 274.835938 127.425781 C 271.414062 132.101562 256.015625 136.902344 234.34375 139.183594 Z M 234.34375 139.183594 " fill-opacity="1" fill-rule="nonzero"/></g><g clip-path="url(#d263b7b9ca)"><g clip-path="url(#18992258fe)"><path fill="url(#7acc1e7322)" d="M 99.679688 126.605469 L 99.679688 144.496094 L 140.425781 144.496094 L 140.425781 126.605469 Z M 99.679688 126.605469 " fill-rule="nonzero"/></g></g><g clip-path="url(#340a921ae9)"><path fill="#3a3b21" d="M 140.425781 132.738281 C 108.433594 126.605469 108.148438 126.742188 105.792969 127.9375 C 102.324219 129.683594 100.246094 134.390625 99.679688 140.714844 L 99.9375 144.496094 C 103.355469 139.820312 118.753906 135.019531 140.425781 132.738281 Z M 140.425781 132.738281 " fill-opacity="1" fill-rule="nonzero"/></g><g clip-path="url(#89c1fe689b)"><g clip-path="url(#b8d337331e)"><path fill="url(#f951558e65)" d="M 203.535156 212.4375 L 203.535156 221.894531 L 231.308594 221.894531 L 231.308594 212.4375 Z M 203.535156 212.4375 " fill-rule="nonzero"/><path fill="url(#7c7628b23f)" d="M 203.535156 212.4375 L 203.535156 221.894531 L 231.308594 221.894531 L 231.308594 212.4375 Z M 203.535156 212.4375 " fill-rule="nonzero"/></g></g><g clip-path="url(#8af4980e11)"><g clip-path="url(#c101f67360)"><path fill="url(#ef06aa97f3)" d="M 124.472656 150.246094 L 124.472656 179.894531 L 226.433594 179.894531 L 226.433594 150.246094 Z M 124.472656 150.246094 " fill-rule="nonzero"/></g></g><path fill="#f92a03" d="M 124.472656 173.535156 C 132.164062 172.664062 147.070312 174.761719 161.320312 179.894531 C 172.714844 178.679688 192.042969 178.0625 225.347656 176.988281 C 225.378906 176.988281 225.761719 176.957031 226.433594 176.890625 C 203.546875 162.152344 165.058594 150.246094 124.472656 173.535156 Z M 124.472656 173.535156 " fill-opacity="1" fill-rule="nonzero"/><g transform="matrix(1, 0, 0, 1, 129, 246)"><g clip-path="url(#2f47b79a29)"><g fill="#ffffff" fill-opacity="1"><g transform="translate(1.60922, 51.371017)"><g><path d="M 23.328125 -8.671875 C 23.328125 -5.867188 22.296875 -3.644531 20.234375 -2 C 18.171875 -0.363281 15.425781 0.453125 12 0.453125 C 7.894531 0.453125 4.742188 0.00390625 2.546875 -0.890625 L 2.546875 -3.25 C 4.972656 -2.21875 8.066406 -1.703125 11.828125 -1.703125 C 14.585938 -1.703125 16.773438 -2.332031 18.390625 -3.59375 C 20.003906 -4.863281 20.8125 -6.523438 20.8125 -8.578125 C 20.8125 -9.847656 20.539062 -10.898438 20 -11.734375 C 19.46875 -12.578125 18.597656 -13.34375 17.390625 -14.03125 C 16.179688 -14.71875 14.398438 -15.460938 12.046875 -16.265625 C 8.617188 -17.441406 6.25 -18.71875 4.9375 -20.09375 C 3.625 -21.46875 2.96875 -23.296875 2.96875 -25.578125 C 2.96875 -28.085938 3.953125 -30.132812 5.921875 -31.71875 C 7.890625 -33.3125 10.425781 -34.109375 13.53125 -34.109375 C 16.6875 -34.109375 19.648438 -33.507812 22.421875 -32.3125 L 21.578125 -30.296875 C 18.785156 -31.460938 16.117188 -32.046875 13.578125 -32.046875 C 11.085938 -32.046875 9.101562 -31.46875 7.625 -30.3125 C 6.15625 -29.164062 5.421875 -27.601562 5.421875 -25.625 C 5.421875 -24.382812 5.644531 -23.363281 6.09375 -22.5625 C 6.550781 -21.769531 7.296875 -21.050781 8.328125 -20.40625 C 9.359375 -19.769531 11.125 -19.007812 13.625 -18.125 C 16.238281 -17.21875 18.203125 -16.335938 19.515625 -15.484375 C 20.835938 -14.640625 21.800781 -13.675781 22.40625 -12.59375 C 23.019531 -11.507812 23.328125 -10.203125 23.328125 -8.671875 Z M 23.328125 -8.671875 "/></g></g><g transform="translate(27.276743, 51.371017)"><g><path d="M 12.484375 -15.234375 L 22.328125 -33.625 L 24.859375 -33.625 L 13.65625 -13 L 13.65625 0 L 11.25 0 L 11.25 -12.8125 L 0 -33.625 L 2.6875 -33.625 Z M 12.484375 -15.234375 "/></g></g><g transform="translate(52.13928, 51.371017)"><g><path d="M 29.21875 0 L 26.84375 0 L 6.921875 -29.859375 L 6.734375 -29.859375 C 6.921875 -26.296875 7.015625 -23.613281 7.015625 -21.8125 L 7.015625 0 L 4.765625 0 L 4.765625 -33.625 L 7.109375 -33.625 L 27 -3.8125 L 27.140625 -3.8125 C 27.003906 -6.570312 26.9375 -9.195312 26.9375 -11.6875 L 26.9375 -33.625 L 29.21875 -33.625 Z M 29.21875 0 "/></g></g><g transform="translate(86.109649, 51.371017)"><g><path d="M 19.109375 -32 C 14.898438 -32 11.582031 -30.648438 9.15625 -27.953125 C 6.726562 -25.253906 5.515625 -21.554688 5.515625 -16.859375 C 5.515625 -12.054688 6.65625 -8.328125 8.9375 -5.671875 C 11.226562 -3.023438 14.5 -1.703125 18.75 -1.703125 C 21.570312 -1.703125 24.160156 -2.0625 26.515625 -2.78125 L 26.515625 -0.71875 C 24.296875 0.0625 21.519531 0.453125 18.1875 0.453125 C 13.46875 0.453125 9.75 -1.066406 7.03125 -4.109375 C 4.320312 -7.160156 2.96875 -11.425781 2.96875 -16.90625 C 2.96875 -20.320312 3.613281 -23.332031 4.90625 -25.9375 C 6.207031 -28.550781 8.070312 -30.566406 10.5 -31.984375 C 12.925781 -33.398438 15.753906 -34.109375 18.984375 -34.109375 C 22.265625 -34.109375 25.195312 -33.492188 27.78125 -32.265625 L 26.84375 -30.15625 C 24.382812 -31.382812 21.804688 -32 19.109375 -32 Z M 19.109375 -32 "/></g></g></g></g></g><g transform="matrix(1, 0, 0, 1, 130, 309)"><g clip-path="url(#afed7d903b)"><g fill="#949494" fill-opacity="1"><g transform="translate(1.399042, 10.768036)"><g><path d="M 9.859375 0 L 7.984375 0 L 7.203125 -1.890625 L 2.71875 -1.890625 L 1.953125 0 L 0.0625 0 L 4.125 -9.75 L 5.8125 -9.75 Z M 4.90625 -7.21875 L 3.328125 -3.375 L 6.59375 -3.375 L 5.015625 -7.21875 L 4.984375 -7.453125 L 4.953125 -7.453125 Z M 4.90625 -7.21875 "/></g></g></g><g fill="#949494" fill-opacity="1"><g transform="translate(13.121383, 10.768036)"><g><path d="M 7.34375 0 L 1.15625 0 L 1.15625 -9.75 L 2.9375 -9.75 L 2.9375 -1.59375 L 7.34375 -1.59375 Z M 7.34375 0 "/></g></g></g><g fill="#949494" fill-opacity="1"><g transform="translate(22.537932, 10.768036)"><g><path d="M 7.34375 0 L 1.15625 0 L 1.15625 -9.75 L 2.9375 -9.75 L 2.9375 -1.59375 L 7.34375 -1.59375 Z M 7.34375 0 "/></g></g></g><g fill="#949494" fill-opacity="1"><g transform="translate(31.954482, 10.768036)"><g/></g></g><g fill="#949494" fill-opacity="1"><g transform="translate(37.317995, 10.768036)"><g><path d="M 4.984375 0 L 3.203125 0 L 3.203125 -8.15625 L 0.3125 -8.15625 L 0.3125 -9.75 L 7.890625 -9.75 L 7.890625 -8.15625 L 4.984375 -8.15625 Z M 4.984375 0 "/></g></g></g><g fill="#949494" fill-opacity="1"><g transform="translate(47.300243, 10.768036)"><g><path d="M 2.9375 0 L 1.15625 0 L 1.15625 -9.75 L 2.9375 -9.75 L 2.9375 -5.703125 L 7.859375 -5.703125 L 7.859375 -9.75 L 9.65625 -9.75 L 9.65625 0 L 7.859375 0 L 7.859375 -4.109375 L 2.9375 -4.109375 Z M 2.9375 0 "/></g></g></g><g fill="#949494" fill-opacity="1"><g transform="translate(59.896207, 10.768036)"><g><path d="M 7.90625 0 L 1.15625 0 L 1.15625 -9.75 L 7.84375 -9.75 L 7.84375 -8.140625 L 2.9375 -8.140625 L 2.9375 -5.703125 L 7.171875 -5.703125 L 7.171875 -4.203125 L 2.9375 -4.203125 L 2.9375 -1.59375 L 7.90625 -1.59375 Z M 7.90625 0 "/></g></g></g><g fill="#949494" fill-opacity="1"><g transform="translate(70.050315, 10.768036)"><g/></g></g><g fill="#949494" fill-opacity="1"><g transform="translate(75.413828, 10.768036)"><g><path d="M 4.984375 0 L 3.203125 0 L 3.203125 -8.15625 L 0.3125 -8.15625 L 0.3125 -9.75 L 7.890625 -9.75 L 7.890625 -8.15625 L 4.984375 -8.15625 Z M 4.984375 0 "/></g></g></g><g fill="#949494" fill-opacity="1"><g transform="translate(85.396076, 10.768036)"><g><path d="M 2.9375 0 L 1.15625 0 L 1.15625 -9.75 L 2.9375 -9.75 Z M 2.9375 0 "/></g></g></g><g fill="#949494" fill-opacity="1"><g transform="translate(91.282322, 10.768036)"><g><path d="M 2.9375 0 L 1.15625 0 L 1.15625 -9.75 L 2.71875 -9.75 L 6.078125 -5.203125 L 9.453125 -9.75 L 11.015625 -9.75 L 11.015625 0 L 9.234375 0 L 9.234375 -6.890625 L 6.3125 -2.90625 L 5.828125 -2.90625 L 2.9375 -6.90625 Z M 2.9375 0 "/></g></g></g><g fill="#949494" fill-opacity="1"><g transform="translate(105.231677, 10.768036)"><g><path d="M 7.90625 0 L 1.15625 0 L 1.15625 -9.75 L 7.84375 -9.75 L 7.84375 -8.140625 L 2.9375 -8.140625 L 2.9375 -5.703125 L 7.171875 -5.703125 L 7.171875 -4.203125 L 2.9375 -4.203125 L 2.9375 -1.59375 L 7.90625 -1.59375 Z M 7.90625 0 "/></g></g></g></g></g></svg>
